<svg width="68" height="70" viewBox="0 0 68 70" fill="none" xmlns="http://www.w3.org/2000/svg">
<g id="Group 2">
<path id="g" d="M39.583 13.4419C40.3665 13.344 41.0521 13.5643 41.6397 14.103C42.2273 14.5927 42.5211 15.2537 42.5211 16.0862C42.5211 16.8697 42.2273 17.5552 41.6397 18.1428C41.0521 18.6815 40.3665 18.9018 39.583 18.8039C39.0934 18.706 38.5792 18.6325 38.0405 18.5836C37.5509 18.5346 37.0367 18.4856 36.498 18.4367H36.3511C36.0084 18.4367 35.837 18.6325 35.837 19.0243V49.4334C35.837 51.4901 35.4942 53.6936 34.8087 56.0441C34.1231 58.4435 33.0703 60.696 31.6502 62.8017C30.2301 64.9073 28.3938 66.6212 26.1413 67.9433C23.9377 69.3144 21.269 70 18.135 70C15.2949 70 12.871 69.5348 10.8633 68.6044C8.8556 67.674 7.19069 66.4008 5.86855 64.7849C5.08506 63.8545 4.49745 62.8751 4.1057 61.8468C3.76293 60.8185 3.59154 59.8391 3.59154 58.9087C3.59154 57.4886 3.98328 56.2644 4.76677 55.2361C5.55026 54.2568 6.67652 53.7671 8.14556 53.7671C9.56564 53.7671 10.6674 54.2323 11.4509 55.1627C12.2834 56.142 12.6996 57.2193 12.6996 58.3945C12.6996 59.7167 12.1854 60.8185 11.1571 61.6999C10.8143 62.0427 10.7409 62.3365 10.9367 62.5813C11.5244 63.4138 12.3813 64.0504 13.5076 64.4911C14.6338 64.9318 16.1763 65.1521 18.135 65.1521C20.2407 65.1521 22.0525 64.6869 23.5705 63.7565C25.1375 62.8261 26.4106 61.5775 27.39 60.0105C28.3694 58.4925 29.1039 56.8031 29.5936 54.9423C30.0832 53.0815 30.3281 51.2452 30.3281 49.4334V47.6706C30.3281 47.3767 30.2546 47.2054 30.1077 47.1564C29.9608 47.0585 29.7649 47.1074 29.5201 47.3033C28.198 48.6254 26.68 49.6782 24.9661 50.4617C23.3012 51.2452 21.4649 51.637 19.4572 51.637C16.3722 51.637 13.6545 51.0738 11.304 49.9476C9.00251 48.8213 7.06827 47.3523 5.50129 45.5404C3.98328 43.6797 2.83253 41.623 2.04905 39.3705C1.31453 37.069 0.947266 34.792 0.947266 32.5394C0.947266 30.3359 1.31453 28.1078 2.04905 25.8553C2.78357 23.6028 3.86086 21.5461 5.28094 19.6853C6.74998 17.7756 8.61076 16.2576 10.8633 15.1313C13.1158 14.005 15.7356 13.4419 18.7227 13.4419C21.0242 13.4419 23.0563 13.8092 24.8192 14.5437C26.582 15.2782 28.149 16.2821 29.5201 17.5552C29.667 17.7021 29.8139 17.7756 29.9608 17.7756C30.2057 17.7756 30.3281 17.6042 30.3281 17.2614V16.6738C30.3281 15.8903 30.5974 15.2292 31.136 14.6906C31.6747 14.1519 32.3358 13.8826 33.1193 13.8826H35.837C35.9839 13.8826 36.3267 13.8581 36.8653 13.8092C37.4529 13.7112 38.0161 13.6378 38.5547 13.5888C39.0933 13.4909 39.4361 13.4419 39.583 13.4419ZM19.3837 46.275C21.8321 46.275 23.9377 45.8098 25.7006 44.8794C27.5124 43.949 28.957 42.7737 30.0343 41.3537C30.2301 41.1088 30.3281 40.8395 30.3281 40.5457V24.1659C30.3281 23.8721 30.2301 23.6028 30.0343 23.3579C28.6632 21.8889 27.0472 20.7381 25.1864 19.9057C23.3256 19.0732 21.3669 18.657 19.3103 18.657C16.7639 18.657 14.5359 19.2691 12.6261 20.4933C10.7654 21.7175 9.29631 23.3824 8.21902 25.488C7.19069 27.5447 6.67652 29.8707 6.67652 32.466C6.67652 35.0123 7.21517 37.3383 8.29247 39.4439C9.41873 41.5496 10.9367 43.2145 12.8465 44.4387C14.8052 45.6629 16.9843 46.275 19.3837 46.275Z" fill="#F6A961"/>
<path id="g_2" d="M28.4172 13.4419C27.6337 13.344 26.9482 13.5643 26.3606 14.103C25.7729 14.5927 25.4791 15.2537 25.4791 16.0862C25.4791 16.8697 25.7729 17.5552 26.3606 18.1428C26.9482 18.6815 27.6337 18.9018 28.4172 18.8039C28.9069 18.706 29.4211 18.6325 29.9597 18.5836C30.4494 18.5346 30.9636 18.4856 31.5022 18.4367H31.6491C31.9919 18.4367 32.1633 18.6325 32.1633 19.0243V49.4334C32.1633 51.4901 32.506 53.6936 33.1916 56.0441C33.8771 58.4435 34.93 60.696 36.35 62.8017C37.7701 64.9073 39.6064 66.6212 41.8589 67.9433C44.0625 69.3144 46.7313 70 49.8652 70C52.7053 70 55.1293 69.5348 57.137 68.6044C59.1446 67.674 60.8096 66.4008 62.1317 64.7849C62.9152 63.8545 63.5028 62.8751 63.8945 61.8468C64.2373 60.8185 64.4087 59.8391 64.4087 58.9087C64.4087 57.4886 64.017 56.2644 63.2335 55.2361C62.45 54.2568 61.3237 53.7671 59.8547 53.7671C58.4346 53.7671 57.3328 54.2323 56.5493 55.1627C55.7169 56.142 55.3007 57.2193 55.3007 58.3945C55.3007 59.7167 55.8148 60.8185 56.8431 61.6999C57.1859 62.0427 57.2594 62.3365 57.0635 62.5813C56.4759 63.4138 55.6189 64.0504 54.4927 64.4911C53.3664 64.9318 51.8239 65.1521 49.8652 65.1521C47.7596 65.1521 45.9478 64.6869 44.4298 63.7565C42.8628 62.8261 41.5896 61.5775 40.6103 60.0105C39.6309 58.4925 38.8964 56.8031 38.4067 54.9423C37.917 53.0815 37.6722 51.2452 37.6722 49.4334V47.6706C37.6722 47.3767 37.7456 47.2054 37.8925 47.1564C38.0394 47.0585 38.2353 47.1074 38.4801 47.3033C39.8023 48.6254 41.3203 49.6782 43.0342 50.4617C44.6991 51.2452 46.5354 51.637 48.5431 51.637C51.6281 51.637 54.3458 51.0738 56.6962 49.9476C58.9977 48.8213 60.932 47.3523 62.499 45.5404C64.017 43.6797 65.1677 41.623 65.9512 39.3705C66.6857 37.069 67.053 34.792 67.053 32.5394C67.053 30.3359 66.6857 28.1078 65.9512 25.8553C65.2167 23.6028 64.1394 21.5461 62.7193 19.6853C61.2503 17.7756 59.3895 16.2576 57.137 15.1313C54.8844 14.005 52.2646 13.4419 49.2776 13.4419C46.9761 13.4419 44.9439 13.8092 43.1811 14.5437C41.4182 15.2782 39.8512 16.2821 38.4801 17.5552C38.3332 17.7021 38.1863 17.7756 38.0394 17.7756C37.7946 17.7756 37.6722 17.6042 37.6722 17.2614V16.6738C37.6722 15.8903 37.4028 15.2292 36.8642 14.6906C36.3255 14.1519 35.6645 13.8826 34.881 13.8826H32.1633C32.0164 13.8826 31.6736 13.8581 31.1349 13.8092C30.5473 13.7112 29.9842 13.6378 29.4455 13.5888C28.9069 13.4909 28.5641 13.4419 28.4172 13.4419ZM48.6165 46.275C46.1681 46.275 44.0625 45.8098 42.2996 44.8794C40.4878 43.949 39.0433 42.7737 37.966 41.3537C37.7701 41.1088 37.6722 40.8395 37.6722 40.5457V24.1659C37.6722 23.8721 37.7701 23.6028 37.966 23.3579C39.3371 21.8889 40.953 20.7381 42.8138 19.9057C44.6746 19.0732 46.6333 18.657 48.69 18.657C51.2363 18.657 53.4644 19.2691 55.3741 20.4933C57.2349 21.7175 58.7039 23.3824 59.7812 25.488C60.8096 27.5447 61.3237 29.8707 61.3237 32.466C61.3237 35.0123 60.7851 37.3383 59.7078 39.4439C58.5815 41.5496 57.0635 43.2145 55.1538 44.4387C53.195 45.6629 51.016 46.275 48.6165 46.275Z" fill="#F7A961"/>
<path id="." d="M33.682 9.84257C32.3109 9.84257 31.1357 9.35289 30.1563 8.37353C29.2259 7.44314 28.7607 6.29239 28.7607 4.92128C28.7607 3.55018 29.2259 2.39943 30.1563 1.46904C31.1357 0.489679 32.3109 0 33.682 0C35.0531 0 36.2039 0.489679 37.1343 1.46904C38.1136 2.39943 38.6033 3.55018 38.6033 4.92128C38.6033 6.29239 38.1136 7.44314 37.1343 8.37353C36.2039 9.35289 35.0531 9.84257 33.682 9.84257Z" fill="#F6A961"/>
</g>
</svg>
